<?xml version="1.0" encoding="utf-8"?>
<!-- Generator: Adobe Illustrator 19.0.1, SVG Export Plug-In . SVG Version: 6.00 Build 0)  -->
<svg version="1.0" id="Layer_1" xmlns="http://www.w3.org/2000/svg" xmlns:xlink="http://www.w3.org/1999/xlink" x="0px" y="0px"
	 viewBox="0 0 76.3 34.5" enable-background="new 0 0 76.3 34.5" xml:space="preserve">
<g>
	<g id="XMLID_86_">
		<g id="XMLID_88_">
			<path id="XMLID_469_" d="M14.2,0h5.1c0.8,0,1.7,0,2.6,0.2c1.5,0.4,3.6,1.7,3.6,4.8c0,2-0.9,4.2-3.7,4.8C21,10,20.2,10,19.3,10
				h-2.2v5.1h-2.9V0z M17.1,2.4v5.3h2c0.6,0,1.1,0,1.6-0.1c1.8-0.4,1.9-2,1.9-2.6c0-1.1-0.5-1.7-0.8-1.9c-0.7-0.6-1.7-0.6-2.6-0.6
				H17.1z"/>
		</g>
		<g id="XMLID_104_">
			<path id="XMLID_5_" d="M30.1,0v15.2h-2.6V0H30.1z"/>
		</g>
		<g id="XMLID_122_">
			<path id="XMLID_427_" d="M32.8,7.6c0-0.5,0.1-1,0.4-1.6c1-1.9,3.6-1.9,4.3-1.9c1,0,2.3,0.1,3.2,0.7C42,5.6,42,6.6,42,7.7v5.7
				c0,0.8,0,1.1,0.5,1.7h-3.1c0-0.3-0.1-0.7-0.1-0.8c-0.6,0.5-1.7,1.1-3.2,1.1c-2.4,0-3.9-1.5-3.9-3.4c0-0.5,0.1-1,0.3-1.5
				c0.8-1.5,2.4-1.9,3.5-2.1c2.2-0.5,2.4-0.5,3.3-0.8c0-0.5,0-1.6-1.8-1.6c-1.1,0-1.7,0.3-1.9,0.7c-0.3,0.3-0.3,0.6-0.3,0.9
				L32.8,7.6z M39.4,9.8c-0.5,0.3-1.1,0.5-2.3,0.6C36.2,10.6,35,10.8,35,12c0,0.8,0.7,1.3,1.7,1.3c1.3,0,2.2-0.6,2.5-1.2
				c0.2-0.3,0.2-0.6,0.2-1V9.8z"/>
		</g>
		<g id="XMLID_129_">
			<path id="XMLID_4_" d="M53.7,4.4L51,13.8l-0.6,2c-0.7,2.3-1.5,3.1-3.5,3.1c-0.8,0-1.2-0.1-1.5-0.1v-2.3c0.2,0,0.4,0.1,0.7,0.1
				c0.2,0,0.8,0,1.2-0.3c0.3-0.2,0.6-0.7,0.6-0.9l-3.9-11h2.8l2.4,8l2-8H53.7z"/>
		</g>
		<g id="XMLID_131_">
			<path id="XMLID_3_" d="M64.1,0.2v2.6h-2.6V0.2H64.1z M64.1,4.4v10.8h-2.6V4.4H64.1z"/>
		</g>
		<g id="XMLID_155_">
			<path id="XMLID_2_" d="M70,6.3v4.9c0,1.3,0,1.9,1.2,1.9c0.4,0,0.7,0,1.1-0.1v2.2c-0.8,0.1-1.3,0.2-1.9,0.2c-0.5,0-2.3,0-2.8-1.3
				c-0.2-0.4-0.2-1.1-0.2-2.2V6.3h-1.6V4.4h1.6V0.6H70v3.8h2.3v1.8H70z"/>
		</g>
		<g id="XMLID_158_">
			<path id="XMLID_1_" d="M76.3,12.2v2.9h-2.8v-2.9H76.3z"/>
		</g>
	</g>
	<g id="XMLID_126_">
		<path id="XMLID_308_" d="M47.2,34.5C27.5,22.8,0.7,27.2,0.4,27.2L0,24.7c0.3,0,7.1-1.2,16.5-0.8c8.7,0.3,21.3,2.1,32.1,8.4
			L47.2,34.5z"/>
	</g>
</g>
</svg>
