<?xml version="1.0" encoding="utf-8"?>
<!-- Generator: Adobe Illustrator 19.0.1, SVG Export Plug-In . SVG Version: 6.00 Build 0)  -->
<svg version="1.0" id="Layer_1" xmlns="http://www.w3.org/2000/svg" xmlns:xlink="http://www.w3.org/1999/xlink" x="0px" y="0px"
	 viewBox="0 0 67.5 35.6" enable-background="new 0 0 67.5 35.6" xml:space="preserve">
<g>
	<g id="XMLID_172_">
		<g id="XMLID_173_">
			<path id="XMLID_470_" d="M12.2,0v15.2H9.4V8.3H2.8v6.9H0V0h2.8v5.7h6.5V0H12.2z"/>
		</g>
		<g id="XMLID_175_">
			<path id="XMLID_442_" d="M20.5,15.5c-3.4,0-5.6-2.5-5.6-5.7s2.3-5.7,5.5-5.7c3,0,5.5,2.1,5.6,5.7C26,13.1,23.7,15.5,20.5,15.5z
				 M20.4,6.4c-1.6,0-2.8,1.3-2.8,3.3c0,2.2,1.4,3.4,2.9,3.4c1.9,0,2.8-1.6,2.8-3.4C23.2,7.9,22.2,6.4,20.4,6.4z"/>
		</g>
		<g id="XMLID_231_">
			<path id="XMLID_430_" d="M30.9,0v15.2h-2.6V0H30.9z"/>
		</g>
		<g id="XMLID_248_">
			<path id="XMLID_414_" d="M43.6,0v15.2H41v-1c-0.8,1-1.9,1.4-3,1.4c-2.6,0-4.8-1.9-4.8-5.5c0-3.2,1.8-5.9,4.9-5.9
				c1.1,0,2.1,0.3,2.9,1.2V0H43.6z M40.4,7.5c-0.4-0.6-1-1-1.9-1c-1.7,0-2.6,1.6-2.6,3.3c0,0.2,0,3.4,2.5,3.4c1.3,0,2.5-1,2.5-3.3
				C41,9.2,40.9,8.2,40.4,7.5z"/>
		</g>
		<g id="XMLID_269_">
			<path id="XMLID_398_" d="M55.2,0.2v2.6h-2.6V0.2H55.2z M55.2,4.4v10.8h-2.6V4.4H55.2z"/>
		</g>
		<g id="XMLID_276_">
			<path id="XMLID_384_" d="M61.1,6.3v4.9c0,1.3,0,1.9,1.2,1.9c0.4,0,0.7,0,1.1-0.1v2.2c-0.8,0.1-1.3,0.2-1.9,0.2
				c-0.5,0-2.3,0-2.8-1.3c-0.2-0.4-0.2-1.1-0.2-2.2V6.3H57V4.4h1.6V0.6h2.6v3.8h2.3v1.8H61.1z"/>
		</g>
		<g id="XMLID_306_">
			<path id="XMLID_324_" d="M67.5,12.2v2.9h-2.8v-2.9H67.5z"/>
		</g>
	</g>
	<g id="XMLID_249_">
		<path id="XMLID_313_" d="M14.4,35.6l-1.6-2.1c5-3.7,14.4-8.7,30.5-11.1c9.6-1.4,17-1.3,17.3-1.3l-0.1,2.6
			C60.3,23.8,30.9,23.2,14.4,35.6z"/>
	</g>
</g>
</svg>
