<svg xmlns="http://www.w3.org/2000/svg" viewBox="0 0 502 70"><polygon points="48.4,1 33.8,54 19.4,1 1.5,1 1.5,67.7 13.1,67.7 13.1,15.7 27.1,67.7 40.3,67.7 54.5,15.7 54.5,67.7 66.1,67.7 66.1,1"/><path d="M299.7 1v38.3c0 6.7 0.2 8.9 1.2 11.5c1.8 4.5 6.3 7.1 12.4 7.1c7.1 0 11.6-3.2 13-9.2c0.5-2.1 0.6-4.1 0.6-9.4V1h12.8 v38.5c0 9.6-0.5 12.9-2.6 17.1c-3.8 7.9-12.6 12.4-23.8 12.4c-11.2 0-20-4.5-23.8-12.4c-2.1-4.2-2.6-7.5-2.6-17.1V1H299.7z"/><polygon points="452.5,1 452.5,11.9 470.1,11.9 470.1,67.7 482.9,67.7 482.9,11.9 500.5,11.9 500.5,1"/></svg>