<?xml version="1.0" encoding="iso-8859-1"?><!DOCTYPE svg PUBLIC "-//W3C//DTD SVG 1.1//EN" "http://www.w3.org/Graphics/SVG/1.1/DTD/svg11.dtd"><svg width="173" height="35.6" viewBox="0 0 173 35.6" xmlns="http://www.w3.org/2000/svg" xmlns:xlink="http://www.w3.org/1999/xlink"><svg width="9" height="19" viewBox="0 0 9 19" id="facebook"><path d="M1.917 3.682v2.613H0v3.2h1.917V19h3.937V9.494h2.64s.25-1.535.368-3.21H5.87V4.096c0-.327.428-.767.853-.767h2.145V0H5.95C1.818 0 1.917 3.203 1.917 3.682z" fill="#FFF"/></svg><svg width="19" height="17" viewBox="0 0 19 17" id="twitter" x="9"><path d="M18.635 2.623c-.69.334-1.422.55-2.2.65.793-.512 1.4-1.313 1.69-2.275-.742.47-1.562.805-2.435 1-.695-.803-1.692-1.304-2.79-1.304-2.11 0-3.82 1.84-3.82 4.117 0 .32.032.637.095.934-3.172-.163-5.993-1.808-7.88-4.293C.967 2.058.78 2.763.78 3.52c0 1.425.673 2.69 1.7 3.42-.627-.026-1.217-.2-1.73-.513v.058c0 1.99 1.316 3.65 3.065 4.034-.32.094-.66.135-1.01.135-.246 0-.48-.016-.716-.072.483 1.64 1.897 2.833 3.57 2.857-1.31 1.11-2.957 1.762-4.748 1.762-.31 0-.615-.018-.913-.058C1.69 16.316 3.696 17 5.86 17c7.032 0 10.88-6.273 10.88-11.712 0-.174-.005-.35-.014-.526.748-.59 1.397-1.315 1.91-2.14z" fill="#FFF"/></svg><svg version="1" viewBox="0 0 67.5 35.6" width="67.5" height="35.6" id="video-pause-button-black" x="28"><path d="M12.2 0v15.2H9.4V8.3H2.8v6.9H0V0h2.8v5.7h6.5V0h2.9zM20.5 15.5c-3.4 0-5.6-2.5-5.6-5.7s2.3-5.7 5.5-5.7c3 0 5.5 2.1 5.6 5.7 0 3.3-2.3 5.7-5.5 5.7zm-.1-9.1c-1.6 0-2.8 1.3-2.8 3.3 0 2.2 1.4 3.4 2.9 3.4 1.9 0 2.8-1.6 2.8-3.4-.1-1.8-1.1-3.3-2.9-3.3zM30.9 0v15.2h-2.6V0h2.6zM43.6 0v15.2H41v-1c-.8 1-1.9 1.4-3 1.4-2.6 0-4.8-1.9-4.8-5.5 0-3.2 1.8-5.9 4.9-5.9 1.1 0 2.1.3 2.9 1.2V0h2.6zm-3.2 7.5c-.4-.6-1-1-1.9-1-1.7 0-2.6 1.6-2.6 3.3 0 .2 0 3.4 2.5 3.4 1.3 0 2.5-1 2.5-3.3.1-.7 0-1.7-.5-2.4zM55.2.2v2.6h-2.6V.2h2.6zm0 4.2v10.8h-2.6V4.4h2.6zM61.1 6.3v4.9c0 1.3 0 1.9 1.2 1.9.4 0 .7 0 1.1-.1v2.2c-.8.1-1.3.2-1.9.2-.5 0-2.3 0-2.8-1.3-.2-.4-.2-1.1-.2-2.2V6.3H57V4.4h1.6V.6h2.6v3.8h2.3v1.8h-2.4zM67.5 12.2v2.9h-2.8v-2.9h2.8z"/><g><path d="M14.4 35.6l-1.6-2.1c5-3.7 14.4-8.7 30.5-11.1 9.6-1.4 17-1.3 17.3-1.3l-.1 2.6c-.2.1-29.6-.5-46.1 11.9z"/></g></svg><svg version="1" viewBox="0 0 76.3 34.5" width="76.3" height="34.5" id="video-play-button-black" x="96"><path d="M14.2 0h5.1c.8 0 1.7 0 2.6.2 1.5.4 3.6 1.7 3.6 4.8 0 2-.9 4.2-3.7 4.8-.8.2-1.6.2-2.5.2h-2.2v5.1h-2.9V0zm2.9 2.4v5.3h2c.6 0 1.1 0 1.6-.1 1.8-.4 1.9-2 1.9-2.6 0-1.1-.5-1.7-.8-1.9-.7-.6-1.7-.6-2.6-.6h-2.1zM30.1 0v15.2h-2.6V0h2.6zM32.8 7.6c0-.5.1-1 .4-1.6 1-1.9 3.6-1.9 4.3-1.9 1 0 2.3.1 3.2.7C42 5.6 42 6.6 42 7.7v5.7c0 .8 0 1.1.5 1.7h-3.1c0-.3-.1-.7-.1-.8-.6.5-1.7 1.1-3.2 1.1-2.4 0-3.9-1.5-3.9-3.4 0-.5.1-1 .3-1.5.8-1.5 2.4-1.9 3.5-2.1 2.2-.5 2.4-.5 3.3-.8 0-.5 0-1.6-1.8-1.6-1.1 0-1.7.3-1.9.7-.3.3-.3.6-.3.9h-2.5zm6.6 2.2c-.5.3-1.1.5-2.3.6-.9.2-2.1.4-2.1 1.6 0 .8.7 1.3 1.7 1.3 1.3 0 2.2-.6 2.5-1.2.2-.3.2-.6.2-1V9.8zM53.7 4.4L51 13.8l-.6 2c-.7 2.3-1.5 3.1-3.5 3.1-.8 0-1.2-.1-1.5-.1v-2.3c.2 0 .4.1.7.1.2 0 .8 0 1.2-.3.3-.2.6-.7.6-.9L44 4.4h2.8l2.4 8 2-8h2.5zM64.1.2v2.6h-2.6V.2h2.6zm0 4.2v10.8h-2.6V4.4h2.6zM70 6.3v4.9c0 1.3 0 1.9 1.2 1.9.4 0 .7 0 1.1-.1v2.2c-.8.1-1.3.2-1.9.2-.5 0-2.3 0-2.8-1.3-.2-.4-.2-1.1-.2-2.2V6.3h-1.6V4.4h1.6V.6H70v3.8h2.3v1.8H70zM76.3 12.2v2.9h-2.8v-2.9h2.8z"/><g><path d="M47.2 34.5C27.5 22.8.7 27.2.4 27.2L0 24.7c.3 0 7.1-1.2 16.5-.8 8.7.3 21.3 2.1 32.1 8.4l-1.4 2.2z"/></g></svg></svg>