<?xml version="1.0" encoding="utf-8"?>
<!-- Generator: Adobe Illustrator 18.0.0, SVG Export Plug-In . SVG Version: 6.00 Build 0)  -->
<!DOCTYPE svg PUBLIC "-//W3C//DTD SVG 1.1//EN" "http://www.w3.org/Graphics/SVG/1.1/DTD/svg11.dtd">
<svg version="1.1" id="Layer_1" xmlns="http://www.w3.org/2000/svg" xmlns:xlink="http://www.w3.org/1999/xlink" x="0px" y="0px"
	 viewBox="0 0 1026 68" enable-background="new 0 0 1026 68" xml:space="preserve">
<g>
	<polygon fill="#FFFFFF" points="49.9,1.5 34,51.5 17.9,1.5 1.3,1.5 1.3,66.6 12.5,66.6 12.5,17.8 28.6,66.6 39.2,66.6 55.3,17.8 
		55.3,66.6 66.5,66.6 66.5,1.5 	"/>
	<g>
		<path fill="#FFFFFF" d="M652,1.5h-11.4v37.1c0,6.4-0.5,8.9-1.5,11.1c-2,4.5-6.2,6.7-12.6,6.7c-6.4,0-10.9-2-13.1-6.7
			c-1-2.5-1.5-4.8-1.5-11.1V1.5h-11.4v37.3c0,9.5,0.9,13.4,3.5,17.5c4.2,7.3,12.4,10.3,22.5,10.3c9.8,0,17.8-3,22.1-10.3
			c2.5-4.1,3.5-8,3.5-17.5V1.5z"/>
	</g>
	<polygon fill="#FFFFFF" points="973.2,1.4 973.2,11.7 993.3,11.7 993.3,66.6 1004.5,66.6 1004.5,11.7 1024.7,11.7 1024.7,1.4 	"/>
</g>
</svg>
